PathFileType	4	(X/Y/Z)	C:/Users/beibeiliu/ov580/test_trc/User3\sequence.28_training_dense_right.trc
DataRate	CameraRate	NumFrames	NumMarkers	Units	OrigDataRate	OrigDataStartFrame	OrigNumFrames
120	120	16	19	mm	120	1	106
Frame#	Time	ThumbCMC			ThumbMCP			ThumbIP			ThumbTip			IndexMCP			IndexPIP			IndexTip			MiddleMCP			MiddlePIP			MiddleTip			RingMCP			RingPIP			RingTip			PinkyMCP			PinkyPIP			PinkyTip			BackHand1			BackHand2			BackHand3	
		X0	Y0	Z0	X1	Y1	Z1	X2	Y2	Z2	X3	Y3	Z3	X4	Y4	Z4	X5	Y5	Z5	X6	Y6	Z6	X7	Y7	Z7	X8	Y8	Z8	X9	Y9	Z9	X10	Y10	Z10	X11	Y11	Z11	X12	Y12	Z12	X13	Y13	Z13	X14	Y14	Z14	X15	Y15	Z15	X16	Y16	Z16	X17	Y17	Z17	X18	Y18	Z18	
0	0	116.437	34.9298	0.841098	102.009	57.6185	-18.2587	96.2192	75.699	-41.9581	91.3624	87.0929	-59.6388	137.467	55.0553	-70.9637	116.571	29.2272	-79.9561	112.104	22.3058	-50.0327	152.54	38.4573	-76.4749	126.764	16.8167	-81.7465	128.158	9.0021	-41.9944	162.97	26.1521	-74.3986	141.656	4.38321	-80.6067	134.941	-3.43443	-47.2584	185.715	22.82	-62.1906	191.356	26.7273	-82.364	199.298	31.0637	-100.032	177.684	30.0144	-17.6636	172.311	17.2793	11.706	148.989	42.6121	1.31611	
1	0.00833333	97.753	33.216	-7.89503	82.0832	44.022	-23.8578	69.7363	60.5224	-50.1115	56.6934	67.8139	-64.6189	114.73	47.346	-77.9971	97.197	18.9245	-87.1214	100.965	12.7164	-53.9594	129.646	36.285	-81.6145	110.961	5.51027	-83.0683	116.43	4.85489	-44.2161	143.125	25.9264	-81.9978	135.113	-1.11945	-87.0194	123.911	-7.37447	-52.9481	168.287	27.0474	-66.3871	174.603	32.4472	-89.0349	176.474	38.4501	-110.118	158.946	35.6002	-24.5447	157.415	24.4906	5.09724	129.291	46.3238	-8.12071	
2	0.0166667	81.8163	25.1455	-8.86537	66.0235	33.5433	-32.7132	48.1581	44.1119	-55.9969	37.7075	48.2977	-72.9844	98.3688	36.453	-85.8309	84.198	8.42908	-94.5801	88.044	1.37248	-61.3001	112.711	24.2018	-91.8035	100.078	-5.0746	-87.3109	106.548	0.202811	-47.6134	132.454	19.2284	-87.1987	121.731	-6.70663	-91.344	115.914	-13.5468	-57.6237	154.535	27.8328	-72.7347	160.141	28.9379	-93.1187	162.339	33.3951	-113.468	144.248	37.2823	-32.824	147.037	29.9583	-3.65967	114.489	44.1515	-14.5631	
3	0.025	70.0773	19.3584	-16.4011	52.1259	21.5134	-35.2615	35.7411	27.9976	-63.1694	20.9745	28.895	-78.5593	84.0966	23.828	-90.5293	74.5444	-9.84625	-93.5159	80.4001	-9.46915	-61.9028	105.966	11.4141	-95.6848	95.1169	-19.9439	-87.8292	99.4104	-9.07983	-52.1064	119.806	7.85013	-93.2393	112.675	-22.7193	-89.6906	106.293	-21.4427	-57.7962	143.265	19.0853	-77.1332	147.906	18.8506	-96.5964	152.347	21.0323	-123.316	129.67	35.1303	-39.3415	133.822	26.9622	-7.6338	98.1731	39.7932	-25.3744	
4	0.0333333	61.2453	11.6821	-21.059	45.4437	9.52907	-40.1993	27.1958	12.1238	-65.6271	13.1507	10.9112	-83.183	77.0994	5.53425	-96.5125	66.8669	-25.1187	-95.6361	73.9268	-21.4046	-62.5107	94.2145	0.228633	-96.1935	86.2235	-33.4199	-86.4936	88.948	-20.313	-52.426	112.562	-4.2674	-90.6971	102.73	-36.2895	-87.1871	99.0119	-31.5415	-54.0697	136.925	4.90943	-78.5976	140.386	5.16972	-104.476	144.594	2.90232	-126.627	121.694	24.8557	-41.4326	128.733	22.7443	-12.0561	94.8149	29.7765	-27.1235	
5	0.0416667	57.0556	1.46699	-23.1133	42.595	-2.28099	-42.0459	24.8458	-3.05009	-63.1906	10.5787	-4.43882	-81.4754	69.2185	-7.15055	-94.8279	66.8854	-39.4413	-91.2006	65.2428	-28.8165	-57.8002	91.852	-14.2151	-95.7015	84.281	-46.473	-86.9498	84.1179	-31.4618	-51.5595	105.867	-19.8852	-92.0933	101.894	-49.2942	-85.5553	93.668	-43.3974	-54.5053	133.689	-7.01755	-82.4246	134.566	-8.75727	-100.817	142.667	-10.9929	-127.339	121.02	13.1208	-45.5468	121.065	13.5592	-16.1142	89.7076	20.4924	-32.6807	
6	0.05	57.799	-8.63073	-21.6574	37.8836	-10.6647	-39.4951	18.8163	-11.2535	-64.3625	5.60605	-15.1267	-78.9174	69.3322	-18.2201	-93.4701	60.8324	-49.5819	-87.3794	69.1942	-40.2297	-56.7315	87.7385	-24.8039	-94.9903	80.8833	-55.7558	-83.8506	84.0755	-38.1233	-48.763	108.616	-31.3633	-90.5406	101.667	-59.4343	-81.4678	95.8022	-52.2576	-49.7471	130.019	-16.6542	-78.385	137.334	-20.8106	-101.916	141.61	-22.6354	-126.103	116.272	6.25429	-42.0419	117.15	5.56085	-13.0598	85.8167	11.5309	-31.4704	
7	0.0583333	58.8245	-13.7664	-16.5481	40.5579	-15.7604	-39.1708	22.7136	-17.0334	-62.9496	8.1681	-19.1992	-79.9835	70.264	-23.8131	-93.2885	66.7187	-55.6849	-84.3473	69.608	-43.2021	-53.1655	92.1486	-33.3372	-93.4674	83.3605	-61.4584	-80.2617	89.5819	-40.264	-45.442	111.573	-38.6955	-88.4331	104.565	-65.6635	-77.8745	94.866	-57.4374	-48.424	133.268	-22.1952	-75.7597	137.441	-25.4606	-96.9173	145.916	-27.1902	-121.516	118.389	2.05463	-45.3478	120.353	1.21346	-10.2026	86.1498	7.61249	-27.6875	
8	0.0666667	64.0906	-14.9365	-21.3895	43.1249	-17.5098	-38.5812	27.5836	-19.4064	-61.3251	11.6982	-22.2562	-77.6409	75.2766	-27.1766	-92.6844	67.8438	-57.5961	-85.4761	72.0629	-49.1576	-55.045	96.0795	-34.1003	-92.688	86.8787	-63.5883	-77.2771	88.067	-46.7025	-47.0438	112.576	-35.8256	-86.5186	104.976	-65.5994	-80.0626	98.6353	-57.117	-45.1631	137.462	-23.8319	-77.0995	139.298	-27.762	-99.0932	149.475	-31.6222	-118.182	125.489	-0.41473	-43.4099	126.32	-1.10255	-12.9751	92.3981	4.69487	-26.7772	
9	0.075	63.02	-13.9028	-16.3682	44.0362	-18.1342	-39.1661	27.2795	-19.0217	-60.8308	12.2888	-21.2478	-79.3281	78.7174	-26.46	-92.9533	67.4863	-55.2044	-88.3787	73.1264	-46.4694	-54.505	93.53	-35.0624	-94.1672	87.4239	-63.5196	-77.6996	88.2766	-46.4651	-45.7171	114.648	-36.3532	-86.2358	105.074	-65.3762	-79.9956	98.7239	-58.3555	-46.6157	140.747	-24.6477	-77.2443	141.754	-27.9306	-98.2574	146.174	-28.9469	-119.503	121.438	-2.03379	-40.7994	127.306	-1.9719	-13.8745	95.844	6.18662	-25.8685	
10	0.0833333	66.2056	-13.7569	-19.3637	42.9443	-16.0684	-40.5669	24.8153	-18.6971	-61.9658	13.1413	-21.6303	-80.6781	77.0971	-22.3727	-91.0017	68.1555	-56.0893	-85.1332	75.7276	-49.6261	-55.4841	96.6261	-34.724	-92.7194	90.681	-63.4855	-81.3435	91.5969	-45.9953	-46.2278	115.436	-39.5871	-87.6362	106.643	-66.099	-78.7311	100.068	-58.3166	-46.044	141.577	-25.1121	-77.1192	141.929	-27.4193	-97.9109	147.551	-28.7749	-122.636	122.471	-1.48136	-38.8021	126.807	-0.141973	-9.5082	94.9991	4.12191	-25.253	
11	0.0916667	64.9159	-14.7638	-15.0084	48.831	-17.5243	-39.2939	26.8305	-17.6171	-65.4465	11.4778	-19.7604	-81.4849	75.7805	-24.5307	-91.5788	70.6702	-56.1905	-85.3119	74.7005	-45.7839	-53.6411	95.244	-31.0931	-91.2041	89.0263	-63.3409	-79.5998	88.765	-44.8647	-44.8133	115.274	-38.6663	-87.1894	107.731	-65.94	-77.8214	99.1384	-55.8758	-45.1378	137.046	-23.5722	-79.9317	143.386	-27.7984	-100.472	149.397	-30.6671	-120.609	125.314	-1.80652	-43.4356	126.546	-1.38111	-10.7807	91.724	5.12993	-29.061	
12	0.1	62.9203	-13.3063	-15.597	47.711	-16.7699	-39.1477	28.9193	-18.2405	-60.3293	14.2856	-19.4407	-77.5901	75.2672	-25.7676	-93.0733	70.738	-55.9261	-84.1951	70.3433	-47.1925	-54.5516	93.9013	-35.1854	-93.3015	90.4336	-62.9908	-76.3302	91.7563	-44.3512	-45.2653	113.651	-39.5651	-87.0985	107.57	-67.2983	-74.2255	97.2801	-56.4505	-44.8239	139.783	-24.2592	-78.953	141.211	-28.2362	-98.487	145.859	-30.8519	-120.2	124.329	0.188139	-41.586	126.542	-2.47897	-11.1	93.0272	7.16208	-24.8335	
13	0.108333	66.7579	-13.4929	-17.8162	46.1695	-16.4771	-38.7948	29.9568	-16.9072	-61.4002	14.3679	-19.8418	-75.6999	79.0496	-24.2075	-89.501	71.5601	-56.0265	-83.5425	73.19	-43.1124	-50.3693	99.5874	-32.8054	-90.2962	89.7935	-62.71	-78.9085	92.8618	-42.0135	-42.9486	115.83	-41.2436	-86.5462	102.843	-64.6632	-76.9977	99.8582	-59.2425	-45.6689	140.909	-25.3532	-74.7252	142.592	-29.8017	-99.0174	144.184	-30.8074	-116.562	123.735	-0.839577	-37.8063	126.886	-1.66778	-11.4264	92.4136	7.69588	-24.0511	
14	0.116667	64.4133	-13.1141	-16.9215	43.0073	-15.7245	-35.4672	28.3085	-16.3824	-60.0669	11.9744	-17.3476	-79.8971	75.5047	-26.1634	-91.667	70.8429	-55.9698	-80.6995	71.0091	-44.4337	-51.3273	93.8077	-33.5231	-89.6058	89.2068	-62.5254	-78.6098	90.7806	-42.4598	-42.7072	116.071	-40.2494	-84.9363	103.933	-67.2192	-73.1206	97.8031	-55.1421	-42.7074	138.42	-26.1349	-74.1227	144.604	-29.8409	-94.343	146.037	-31.1013	-119.224	126.638	-2.61774	-38.5074	124.919	-1.13121	-8.67283	92.9322	5.47864	-27.0497	
15	0.125	63.5696	-11.475	-16.9188	46.1098	-16.0453	-36.723	27.84	-16.0584	-58.9063	14.8222	-18.4296	-76.2542	75.7861	-24.4479	-91.15	68.1204	-54.6129	-81.294	69.8198	-44.1119	-51.3694	95.1127	-35.3576	-90.3761	84.8338	-61.6856	-75.3174	88.1698	-43.6772	-42.8336	111.997	-38.6403	-85.7825	108.414	-66.8336	-76.8626	100.433	-57.094	-42.7206	139.552	-25.7154	-74.3525	143.819	-29.8716	-94.3559	146.403	-30.1621	-117.008	128.867	-1.71992	-37.0127	129.755	-1.25663	-10.2815	94.2045	5.53043	-23.1299	
